# xmcd CD database file
#
# Track frame offsets:
#	150
#	20535
#	39147
#	58153
#	81412
#	102852
#	122969
#	145841
#	162485
#	186088
#	202534
#	224953
#
# Disc length: 3287 seconds
#
# Revision: 3
# Processed by: cddbd v1.5.2PL0 Copyright (c) Steve Scherf et al.
# Submitted via: CDex 1.70beta2
#
DISCID=ac0cd50c
DTITLE=koda kumi - feel_my_mind
DYEAR=2004
DGENRE=Rock
TTITLE0=Break it down
TTITLE1=Crazy 4 U
TTITLE2=Rock Your Body
TTITLE3=Rain
TTITLE4=Without Your Love
TTITLE5=Talk to you
TTITLE6=華
TTITLE7=Get Out The Way
TTITLE8=Sweet love…
TTITLE9=Gentle Words
TTITLE10=magic
TTITLE11=COME WITH ME
EXTD=YEAR: 2004
EXTT0=
EXTT1=
EXTT2=
EXTT3=
EXTT4=
EXTT5=
EXTT6=
EXTT7=
EXTT8=
EXTT9=
EXTT10=
EXTT11=
PLAYORDER=
